<svg width="196" height="30" viewBox="0 0 196 30" fill="none" xmlns="http://www.w3.org/2000/svg">
<path d="M0.72 26C0.666667 26 0.64 25.92 0.64 25.76C0.64 25.6 0.666667 25.52 0.72 25.52C1.73333 25.52 2.46667 25.4533 2.92 25.32C3.4 25.1867 3.72 24.9333 3.88 24.56C4.06667 24.16 4.16 23.56 4.16 22.76V4.24C4.16 3.44 4.06667 2.85333 3.88 2.48C3.72 2.10667 3.4 1.85333 2.92 1.72C2.46667 1.56 1.73333 1.48 0.72 1.48C0.666667 1.48 0.64 1.4 0.64 1.24C0.64 1.08 0.666667 1 0.72 1H16.8C17.04 1 17.16 1.12 17.16 1.36L17.24 6.28C17.24 6.36 17.16 6.41333 17 6.44C16.8667 6.44 16.8 6.4 16.8 6.32C16.72 4.90667 16.2933 3.81333 15.52 3.04C14.7467 2.24 13.72 1.84 12.44 1.84H10C9.06667 1.84 8.37333 1.92 7.92 2.08C7.46667 2.21333 7.14667 2.45333 6.96 2.8C6.8 3.14667 6.72 3.69333 6.72 4.44V22.6C6.72 23.32 6.8 23.8667 6.96 24.24C7.14667 24.5867 7.45333 24.8267 7.88 24.96C8.30667 25.0933 8.97333 25.16 9.88 25.16H13.08C14.36 25.16 15.4267 24.7067 16.28 23.8C17.1333 22.8933 17.7067 21.64 18 20.04C18 19.9867 18.0533 19.96 18.16 19.96C18.24 19.96 18.3067 19.9867 18.36 20.04C18.44 20.0667 18.48 20.0933 18.48 20.12C18.24 21.8 18.12 23.56 18.12 25.4C18.12 25.6133 18.0667 25.7733 17.96 25.88C17.88 25.96 17.72 26 17.48 26H0.72ZM15.24 16.68C15.24 15.5067 14.9467 14.6667 14.36 14.16C13.8 13.6533 12.8533 13.4 11.52 13.4H5.52V12.56H11.64C12.92 12.56 13.8267 12.3467 14.36 11.92C14.92 11.4933 15.2 10.7733 15.2 9.76C15.2 9.70667 15.28 9.68 15.44 9.68C15.6 9.68 15.68 9.70667 15.68 9.76L15.64 13C15.64 13.7733 15.6533 14.36 15.68 14.76L15.72 16.68C15.72 16.7333 15.64 16.76 15.48 16.76C15.32 16.76 15.24 16.7333 15.24 16.68ZM27.8844 22.6C27.8844 23.3733 27.9644 23.9333 28.1244 24.28C28.2844 24.6267 28.5777 24.8667 29.0044 25C29.431 25.1067 30.1244 25.16 31.0844 25.16H35.4444C36.9644 25.16 38.1777 24.6933 39.0844 23.76C39.991 22.8267 40.591 21.5333 40.8844 19.88C40.8844 19.8 40.951 19.7733 41.0844 19.8C41.2444 19.8 41.3244 19.84 41.3244 19.92C41.0844 22.1333 40.9644 23.96 40.9644 25.4C40.9644 25.6133 40.9244 25.7733 40.8444 25.88C40.7644 25.96 40.6044 26 40.3644 26H21.8844C21.831 26 21.8044 25.92 21.8044 25.76C21.8044 25.6 21.831 25.52 21.8844 25.52C22.8977 25.52 23.631 25.4533 24.0844 25.32C24.5644 25.1867 24.8844 24.9333 25.0444 24.56C25.2044 24.16 25.2844 23.56 25.2844 22.76V4.24C25.2844 3.44 25.2044 2.85333 25.0444 2.48C24.8844 2.10667 24.5644 1.85333 24.0844 1.72C23.631 1.56 22.8977 1.48 21.8844 1.48C21.831 1.48 21.8044 1.4 21.8044 1.24C21.8044 1.08 21.831 1 21.8844 1L23.8444 1.04C24.9644 1.09333 25.871 1.12 26.5644 1.12C27.311 1.12 28.2444 1.09333 29.3644 1.04L31.2844 1C31.3644 1 31.4044 1.08 31.4044 1.24C31.4044 1.4 31.3644 1.48 31.2844 1.48C30.2977 1.48 29.5644 1.56 29.0844 1.72C28.6044 1.85333 28.2844 2.12 28.1244 2.52C27.9644 2.89333 27.8844 3.48 27.8844 4.28V22.6ZM67.1663 1C67.2463 1 67.2863 1.08 67.2863 1.24C67.2863 1.4 67.2463 1.48 67.1663 1.48C66.2596 1.48 65.4729 1.72 64.8063 2.2C64.1396 2.68 63.5796 3.49333 63.1263 4.64L54.6063 25.96C54.5796 26.0667 54.4329 26.12 54.1663 26.12C53.9529 26.12 53.8063 26.0667 53.7263 25.96L43.7663 4.32C43.3129 3.28 42.8329 2.54667 42.3263 2.12C41.8196 1.69333 41.1663 1.48 40.3662 1.48C40.2862 1.48 40.2462 1.4 40.2462 1.24C40.2462 1.08 40.2862 1 40.3662 1L41.8863 1.04C42.6329 1.09333 43.2329 1.12 43.6863 1.12C44.7263 1.12 45.8596 1.09333 47.0863 1.04L48.7663 1C48.8463 1 48.8863 1.08 48.8863 1.24C48.8863 1.4 48.8463 1.48 48.7663 1.48C47.1129 1.48 46.2862 1.93333 46.2862 2.84C46.2862 3.18666 46.4063 3.62667 46.6463 4.16L55.2863 23.08L54.0463 24.92L62.2063 4.4C62.4196 3.89333 62.5263 3.46667 62.5263 3.12C62.5263 2.56 62.2729 2.14666 61.7663 1.88C61.2596 1.61333 60.4729 1.48 59.4063 1.48C59.3263 1.48 59.2863 1.4 59.2863 1.24C59.2863 1.08 59.3263 1 59.4063 1L61.1263 1.04C62.0329 1.09333 62.8596 1.12 63.6063 1.12C64.1663 1.12 64.7929 1.09333 65.4863 1.04L67.1663 1ZM75.0069 22.76C75.0069 23.5867 75.0869 24.1867 75.2469 24.56C75.4069 24.9333 75.7135 25.1867 76.1669 25.32C76.6469 25.4533 77.3935 25.52 78.4069 25.52C78.4869 25.52 78.5269 25.6 78.5269 25.76C78.5269 25.92 78.4869 26 78.4069 26C77.6069 26 76.9669 25.9867 76.4869 25.96L73.6469 25.92L70.8869 25.96C70.4069 25.9867 69.7535 26 68.9269 26C68.8469 26 68.8069 25.92 68.8069 25.76C68.8069 25.6 68.8469 25.52 68.9269 25.52C69.9402 25.52 70.6735 25.4533 71.1269 25.32C71.6069 25.1867 71.9269 24.9333 72.0869 24.56C72.2735 24.16 72.3669 23.56 72.3669 22.76V4.24C72.3669 3.44 72.2735 2.85333 72.0869 2.48C71.9269 2.10667 71.6069 1.85333 71.1269 1.72C70.6735 1.56 69.9402 1.48 68.9269 1.48C68.8469 1.48 68.8069 1.4 68.8069 1.24C68.8069 1.08 68.8469 1 68.9269 1L70.8869 1.04C72.0069 1.09333 72.9269 1.12 73.6469 1.12C74.4469 1.12 75.4069 1.09333 76.5269 1.04L78.4069 1C78.4869 1 78.5269 1.08 78.5269 1.24C78.5269 1.4 78.4869 1.48 78.4069 1.48C77.4202 1.48 76.6869 1.56 76.2069 1.72C75.7269 1.88 75.4069 2.16 75.2469 2.56C75.0869 2.93333 75.0069 3.52 75.0069 4.32V22.76ZM102.488 26C101.821 26 100.541 24.8667 98.6481 22.6C96.7815 20.3067 94.5281 17.16 91.8881 13.16L94.1281 12.48C96.4481 15.8133 98.3815 18.4133 99.9281 20.28C101.501 22.12 102.888 23.4533 104.088 24.28C105.288 25.1067 106.461 25.52 107.608 25.52C107.688 25.52 107.728 25.6 107.728 25.76C107.728 25.92 107.688 26 107.608 26H102.488ZM92.4081 0.879999C94.5148 0.879999 96.1415 1.36 97.2881 2.32C98.4348 3.28 99.0081 4.56 99.0081 6.16C99.0081 7.57333 98.5948 8.86667 97.7681 10.04C96.9415 11.1867 95.8215 12.1067 94.4081 12.8C93.0215 13.4667 91.5281 13.8 89.9281 13.8C89.7681 13.8 89.1681 13.76 88.1281 13.68V22.76C88.1281 23.5867 88.2081 24.1867 88.3681 24.56C88.5281 24.9333 88.8348 25.1867 89.2881 25.32C89.7681 25.4533 90.5148 25.52 91.5281 25.52C91.6081 25.52 91.6481 25.6 91.6481 25.76C91.6481 25.92 91.6081 26 91.5281 26C90.7015 26 90.0481 25.9867 89.5681 25.96L86.8081 25.92L84.0881 25.96C83.6081 25.9867 82.9281 26 82.0481 26C81.9948 26 81.9681 25.92 81.9681 25.76C81.9681 25.6 81.9948 25.52 82.0481 25.52C83.0615 25.52 83.8081 25.4533 84.2881 25.32C84.7681 25.16 85.1015 24.8933 85.2881 24.52C85.4748 24.1467 85.5681 23.56 85.5681 22.76V4.24C85.5681 3.44 85.4748 2.85333 85.2881 2.48C85.1281 2.10667 84.8081 1.85333 84.3281 1.72C83.8748 1.56 83.1415 1.48 82.1281 1.48C82.0481 1.48 82.0081 1.4 82.0081 1.24C82.0081 1.08 82.0481 1 82.1281 1L84.0881 1.04C85.2081 1.09333 86.1148 1.12 86.8081 1.12C87.3948 1.12 87.9415 1.10667 88.4481 1.08C88.9548 1.05333 89.3815 1.02667 89.7281 1C90.7415 0.919999 91.6348 0.879999 92.4081 0.879999ZM96.2881 7.32C96.2881 5.24 95.8215 3.74667 94.8881 2.84C93.9815 1.93333 92.6481 1.48 90.8881 1.48C89.8481 1.48 89.1281 1.66667 88.7281 2.04C88.3281 2.41333 88.1281 3.17333 88.1281 4.32V12.72C88.7681 12.8267 89.5548 12.88 90.4881 12.88C92.5681 12.88 94.0481 12.4267 94.9281 11.52C95.8348 10.6133 96.2881 9.21333 96.2881 7.32ZM115.402 14.2H126.002L126.282 15H115.002L115.402 14.2ZM135.202 25.52C135.309 25.52 135.362 25.6 135.362 25.76C135.362 25.92 135.309 26 135.202 26C134.696 26 133.909 25.9733 132.842 25.92C131.776 25.8667 131.002 25.84 130.522 25.84C129.936 25.84 129.189 25.8667 128.282 25.92C127.429 25.9733 126.776 26 126.322 26C126.216 26 126.162 25.92 126.162 25.76C126.162 25.6 126.216 25.52 126.322 25.52C127.336 25.52 128.056 25.4267 128.482 25.24C128.936 25.0533 129.162 24.72 129.162 24.24C129.162 23.84 129.002 23.28 128.682 22.56L119.802 3.8L120.802 2.56L113.042 20.92C112.669 21.8267 112.482 22.5733 112.482 23.16C112.482 24.7333 113.789 25.52 116.402 25.52C116.536 25.52 116.602 25.6 116.602 25.76C116.602 25.92 116.536 26 116.402 26C115.922 26 115.229 25.9733 114.322 25.92C113.309 25.8667 112.429 25.84 111.682 25.84C110.989 25.84 110.189 25.8667 109.282 25.92C108.482 25.9733 107.816 26 107.282 26C107.149 26 107.082 25.92 107.082 25.76C107.082 25.6 107.149 25.52 107.282 25.52C108.029 25.52 108.656 25.3867 109.162 25.12C109.696 24.8267 110.189 24.3333 110.642 23.64C111.122 22.92 111.642 21.8933 112.202 20.56L120.642 0.64C120.696 0.559999 120.789 0.519999 120.922 0.519999C121.056 0.519999 121.136 0.559999 121.162 0.64L130.602 20.52C131.509 22.4933 132.282 23.8267 132.922 24.52C133.562 25.1867 134.322 25.52 135.202 25.52ZM136.688 29.04C136.635 29.04 136.581 28.9467 136.528 28.76C136.501 28.6 136.488 28.4133 136.488 28.2C136.488 28.0133 136.501 27.84 136.528 27.68C136.555 27.52 136.595 27.44 136.648 27.44H149.888C149.941 27.44 149.981 27.52 150.008 27.68C150.061 27.8667 150.088 28.0533 150.088 28.24C150.088 28.4267 150.061 28.6 150.008 28.76C149.981 28.9467 149.941 29.04 149.888 29.04H136.688ZM156.066 1.92L156.986 2V21.64C156.986 23.0267 157.226 24.0267 157.706 24.64C158.212 25.2267 159.012 25.52 160.106 25.52C160.186 25.52 160.226 25.6 160.226 25.76C160.226 25.92 160.186 26 160.106 26C159.439 26 158.932 25.9867 158.586 25.96L156.586 25.92L154.546 25.96C154.172 25.9867 153.626 26 152.906 26C152.852 26 152.826 25.92 152.826 25.76C152.826 25.6 152.852 25.52 152.906 25.52C154.052 25.52 154.866 25.2267 155.346 24.64C155.826 24.0267 156.066 23.0267 156.066 21.64V1.92ZM176.226 26.48C176.226 26.5333 176.159 26.5733 176.026 26.6C175.892 26.6267 175.799 26.6133 175.746 26.56L157.346 4.28C156.492 3.24 155.706 2.52 154.986 2.12C154.292 1.69333 153.599 1.48 152.906 1.48C152.826 1.48 152.786 1.4 152.786 1.24C152.786 1.08 152.826 1 152.906 1L154.386 1.04C154.706 1.06667 155.146 1.08 155.706 1.08C156.292 1.08 156.772 1.06667 157.146 1.04C157.519 1.01333 157.812 1 158.026 1C158.212 1 158.359 1.05333 158.466 1.16C158.599 1.24 158.746 1.42667 158.906 1.72C159.226 2.2 159.559 2.65333 159.906 3.08L175.906 22.72L176.226 26.48ZM176.226 26.48L175.306 25.24V5.4C175.306 4.01333 175.066 3.01333 174.586 2.4C174.132 1.78667 173.359 1.48 172.266 1.48C172.212 1.48 172.186 1.4 172.186 1.24C172.186 1.08 172.212 1 172.266 1L173.826 1.04C174.626 1.09333 175.279 1.12 175.786 1.12C176.266 1.12 176.932 1.09333 177.786 1.04L179.426 1C179.506 1 179.546 1.08 179.546 1.24C179.546 1.4 179.506 1.48 179.426 1.48C178.306 1.48 177.492 1.78667 176.986 2.4C176.479 3.01333 176.226 4.01333 176.226 5.4V26.48ZM181.688 29.04C181.635 29.04 181.581 28.9467 181.528 28.76C181.501 28.6 181.488 28.4133 181.488 28.2C181.488 28.0133 181.501 27.84 181.528 27.68C181.555 27.52 181.595 27.44 181.648 27.44H194.888C194.941 27.44 194.981 27.52 195.008 27.68C195.061 27.8667 195.088 28.0533 195.088 28.24C195.088 28.4267 195.061 28.6 195.008 28.76C194.981 28.9467 194.941 29.04 194.888 29.04H181.688Z" fill="black"/>
</svg>
